<svg xmlns="http://www.w3.org/2000/svg" viewBox="0 0 720 268" width="720" height="268" font-family="-apple-system,Segoe UI,Roboto,Arial,sans-serif">
<defs><marker id="ah" markerWidth="9" markerHeight="9" refX="7" refY="3.2" orient="auto">
<path d="M0,0 L7,3.2 L0,6.4 z" fill="#7a8696"/></marker></defs>
<rect x="0" y="0" width="720" height="268" fill="#fff"/>
<rect x="8" y="40" width="150" height="64" rx="11" fill="#f4f8fb" stroke="#c4ccd6" stroke-width="1.4"/><rect x="8" y="40" width="6" height="64" rx="3" fill="#0d3b66"/><text x="86" y="68" text-anchor="middle" font-family="-apple-system,Segoe UI,Roboto,Arial,sans-serif" font-size="13" font-weight="700" fill="#0d3b66">Responsabile</text><text x="86" y="84" text-anchor="middle" font-family="-apple-system,Segoe UI,Roboto,Arial,sans-serif" font-size="11.5" font-weight="400" fill="#5b6470">registra multa: mezzo + data</text>
<line x1="158" y1="72" x2="190" y2="72" stroke="#7a8696" stroke-width="1.8" marker-end="url(#ah)"/>
<rect x="190" y="40" width="156" height="64" rx="11" fill="#fdf0e6" stroke="#c4ccd6" stroke-width="1.4"/><rect x="190" y="40" width="6" height="64" rx="3" fill="#ee964b"/><text x="271" y="68" text-anchor="middle" font-family="-apple-system,Segoe UI,Roboto,Arial,sans-serif" font-size="13" font-weight="700" fill="#0d3b66">App propone</text><text x="271" y="84" text-anchor="middle" font-family="-apple-system,Segoe UI,Roboto,Arial,sans-serif" font-size="11.5" font-weight="400" fill="#5b6470">il dipendente (storico consegne)</text>
<line x1="346" y1="72" x2="378" y2="72" stroke="#7a8696" stroke-width="1.8" marker-end="url(#ah)"/>
<rect x="378" y="40" width="160" height="64" rx="11" fill="#f4f8fb" stroke="#c4ccd6" stroke-width="1.4"/><rect x="378" y="40" width="6" height="64" rx="3" fill="#0d3b66"/><text x="461" y="68" text-anchor="middle" font-family="-apple-system,Segoe UI,Roboto,Arial,sans-serif" font-size="13" font-weight="700" fill="#0d3b66">Notifica</text><text x="461" y="84" text-anchor="middle" font-family="-apple-system,Segoe UI,Roboto,Arial,sans-serif" font-size="11.5" font-weight="400" fill="#5b6470">avviso + banner + indicatore</text>
<path d="M458,104 C458,134 455,134 455,150" fill="none" stroke="#7a8696" stroke-width="1.8" marker-end="url(#ah)"/>
<polygon points="455,149 530,188 455,227 380,188" fill="#fdf0e6" stroke="#ee964b" stroke-width="1.6"/><text x="455" y="192" text-anchor="middle" font-family="-apple-system,Segoe UI,Roboto,Arial,sans-serif" font-size="12" font-weight="700" fill="#0d3b66">Dipendente</text>
<line x1="510" y1="165" x2="556" y2="138" stroke="#7a8696" stroke-width="1.8" marker-end="url(#ah)"/><rect x="503.9" y="132.5" width="58.199999999999996" height="17" rx="8" fill="#fff" stroke="#c4ccd6" stroke-width="1"/><text x="533" y="144.5" text-anchor="middle" font-family="-apple-system,Segoe UI,Roboto,Arial,sans-serif" font-size="11" font-weight="600" fill="#5b6470">visione</text>
<rect x="556" y="116" width="156" height="48" rx="11" fill="#eaf6ee" stroke="#c4ccd6" stroke-width="1.4"/><rect x="556" y="116" width="6" height="48" rx="3" fill="#2e9e5b"/><text x="637" y="144" text-anchor="middle" font-family="-apple-system,Segoe UI,Roboto,Arial,sans-serif" font-size="13" font-weight="700" fill="#0d3b66">Presa visione</text>
<line x1="510" y1="211" x2="556" y2="230" stroke="#7a8696" stroke-width="1.8" marker-end="url(#ah)"/><rect x="500.6" y="201.5" width="64.8" height="17" rx="8" fill="#fff" stroke="#c4ccd6" stroke-width="1"/><text x="533" y="213.5" text-anchor="middle" font-family="-apple-system,Segoe UI,Roboto,Arial,sans-serif" font-size="11" font-weight="600" fill="#5b6470">contesta</text>
<rect x="556" y="210" width="156" height="48" rx="11" fill="#fbf3e2" stroke="#c4ccd6" stroke-width="1.4"/><rect x="556" y="210" width="6" height="48" rx="3" fill="#b7791f"/><text x="637" y="238" text-anchor="middle" font-family="-apple-system,Segoe UI,Roboto,Arial,sans-serif" font-size="13" font-weight="700" fill="#0d3b66">Contesta (nota)</text>
</svg>