<svg xmlns="http://www.w3.org/2000/svg" viewBox="0 0 720 250" width="720" height="250" font-family="-apple-system,Segoe UI,Roboto,Arial,sans-serif">
<defs><marker id="ah" markerWidth="9" markerHeight="9" refX="7" refY="3.2" orient="auto">
<path d="M0,0 L7,3.2 L0,6.4 z" fill="#7a8696"/></marker></defs>
<rect x="0" y="0" width="720" height="250" fill="#fff"/>
<rect x="8" y="78" width="110" height="60" rx="11" fill="#f4f8fb" stroke="#c4ccd6" stroke-width="1.4"/><rect x="8" y="78" width="6" height="60" rx="3" fill="#0d3b66"/><text x="66" y="112" text-anchor="middle" font-family="-apple-system,Segoe UI,Roboto,Arial,sans-serif" font-size="13" font-weight="700" fill="#0d3b66">Utente</text>
<line x1="118" y1="108" x2="150" y2="108" stroke="#7a8696" stroke-width="1.8" marker-end="url(#ah)"/>
<rect x="150" y="78" width="150" height="60" rx="11" fill="#f4f8fb" stroke="#c4ccd6" stroke-width="1.4"/><rect x="150" y="78" width="6" height="60" rx="3" fill="#0d3b66"/><text x="228" y="104" text-anchor="middle" font-family="-apple-system,Segoe UI,Roboto,Arial,sans-serif" font-size="13" font-weight="700" fill="#0d3b66">Categoria</text><text x="228" y="120" text-anchor="middle" font-family="-apple-system,Segoe UI,Roboto,Arial,sans-serif" font-size="11.5" font-weight="400" fill="#5b6470">(reparto)</text>
<line x1="300" y1="108" x2="332" y2="108" stroke="#7a8696" stroke-width="1.8" marker-end="url(#ah)"/>
<rect x="332" y="78" width="150" height="60" rx="11" fill="#f4f8fb" stroke="#c4ccd6" stroke-width="1.4"/><rect x="332" y="78" width="6" height="60" rx="3" fill="#0d3b66"/><text x="410" y="104" text-anchor="middle" font-family="-apple-system,Segoe UI,Roboto,Arial,sans-serif" font-size="13" font-weight="700" fill="#0d3b66">Flag della</text><text x="410" y="120" text-anchor="middle" font-family="-apple-system,Segoe UI,Roboto,Arial,sans-serif" font-size="11.5" font-weight="400" fill="#5b6470">categoria</text>
<line x1="482" y1="108" x2="514" y2="108" stroke="#7a8696" stroke-width="1.8" marker-end="url(#ah)"/>
<polygon points="580,63 640,108 580,153 520,108" fill="#fdf0e6" stroke="#ee964b" stroke-width="1.6"/><text x="580" y="104.5" text-anchor="middle" font-family="-apple-system,Segoe UI,Roboto,Arial,sans-serif" font-size="12" font-weight="700" fill="#0d3b66">puo()?</text><text x="580" y="119.5" text-anchor="middle" font-family="-apple-system,Segoe UI,Roboto,Arial,sans-serif" font-size="12" font-weight="400" fill="#0d3b66">permesso?</text>
<line x1="556" y1="153" x2="500" y2="188" stroke="#7a8696" stroke-width="1.8" marker-end="url(#ah)"/>
<rect x="372" y="186" width="128" height="50" rx="11" fill="#eaf6ee" stroke="#c4ccd6" stroke-width="1.4"/><rect x="372" y="186" width="6" height="50" rx="3" fill="#2e9e5b"/><text x="439" y="215" text-anchor="middle" font-family="-apple-system,Segoe UI,Roboto,Arial,sans-serif" font-size="13" font-weight="700" fill="#0d3b66">Consentito</text>
<line x1="604" y1="153" x2="612" y2="188" stroke="#7a8696" stroke-width="1.8" marker-end="url(#ah)"/>
<rect x="534" y="186" width="178" height="50" rx="11" fill="#fbeaea" stroke="#c4ccd6" stroke-width="1.4"/><rect x="534" y="186" width="6" height="50" rx="3" fill="#d64545"/><text x="626" y="215" text-anchor="middle" font-family="-apple-system,Segoe UI,Roboto,Arial,sans-serif" font-size="13" font-weight="700" fill="#0d3b66">Nascosto / bloccato</text>
</svg>