<svg xmlns="http://www.w3.org/2000/svg" viewBox="0 0 720 160" width="720" height="160" font-family="-apple-system,Segoe UI,Roboto,Arial,sans-serif">
<defs><marker id="ah" markerWidth="9" markerHeight="9" refX="7" refY="3.2" orient="auto">
<path d="M0,0 L7,3.2 L0,6.4 z" fill="#7a8696"/></marker></defs>
<rect x="0" y="0" width="720" height="160" fill="#fff"/>
<rect x="30" y="48" width="180" height="72" rx="11" fill="#f4f8fb" stroke="#c4ccd6" stroke-width="1.4"/><rect x="30" y="48" width="6" height="72" rx="3" fill="#0d3b66"/><text x="123" y="80" text-anchor="middle" font-family="-apple-system,Segoe UI,Roboto,Arial,sans-serif" font-size="13" font-weight="700" fill="#0d3b66">Scelta profilo</text><text x="123" y="96" text-anchor="middle" font-family="-apple-system,Segoe UI,Roboto,Arial,sans-serif" font-size="11.5" font-weight="400" fill="#5b6470">Dipendente · Manager/Admin</text>
<line x1="210" y1="84" x2="270" y2="84" stroke="#7a8696" stroke-width="1.8" marker-end="url(#ah)"/>
<rect x="270" y="48" width="180" height="72" rx="11" fill="#f4f8fb" stroke="#c4ccd6" stroke-width="1.4"/><rect x="270" y="48" width="6" height="72" rx="3" fill="#0d3b66"/><text x="363" y="80" text-anchor="middle" font-family="-apple-system,Segoe UI,Roboto,Arial,sans-serif" font-size="13" font-weight="700" fill="#0d3b66">Accesso</text><text x="363" y="96" text-anchor="middle" font-family="-apple-system,Segoe UI,Roboto,Arial,sans-serif" font-size="11.5" font-weight="400" fill="#5b6470">ID o email + password</text>
<line x1="450" y1="84" x2="510" y2="84" stroke="#7a8696" stroke-width="1.8" marker-end="url(#ah)"/>
<rect x="510" y="48" width="180" height="72" rx="11" fill="#eaf6ee" stroke="#c4ccd6" stroke-width="1.4"/><rect x="510" y="48" width="6" height="72" rx="3" fill="#2e9e5b"/><text x="603" y="80" text-anchor="middle" font-family="-apple-system,Segoe UI,Roboto,Arial,sans-serif" font-size="13" font-weight="700" fill="#0d3b66">Hub delle aree</text><text x="603" y="96" text-anchor="middle" font-family="-apple-system,Segoe UI,Roboto,Arial,sans-serif" font-size="11.5" font-weight="400" fill="#5b6470">mostra solo ciò che la categoria consente</text>
</svg>