<svg xmlns="http://www.w3.org/2000/svg" viewBox="0 0 720 240" width="720" height="240" font-family="-apple-system,Segoe UI,Roboto,Arial,sans-serif">
<defs><marker id="ah" markerWidth="9" markerHeight="9" refX="7" refY="3.2" orient="auto">
<path d="M0,0 L7,3.2 L0,6.4 z" fill="#7a8696"/></marker></defs>
<rect x="0" y="0" width="720" height="240" fill="#fff"/>
<rect x="10" y="78" width="190" height="84" rx="11" fill="#f4f8fb" stroke="#c4ccd6" stroke-width="1.4"/><rect x="10" y="78" width="6" height="84" rx="3" fill="#0d3b66"/><text x="108" y="116" text-anchor="middle" font-family="-apple-system,Segoe UI,Roboto,Arial,sans-serif" font-size="13" font-weight="700" fill="#0d3b66">Cassetto del</text><text x="108" y="132" text-anchor="middle" font-family="-apple-system,Segoe UI,Roboto,Arial,sans-serif" font-size="11.5" font-weight="400" fill="#5b6470">dipendente</text>
<line x1="200" y1="110" x2="296" y2="46" stroke="#7a8696" stroke-width="1.8" marker-end="url(#ah)"/>
<rect x="296" y="18" width="200" height="52" rx="11" fill="#f4f8fb" stroke="#c4ccd6" stroke-width="1.4"/><rect x="296" y="18" width="6" height="52" rx="3" fill="#0d3b66"/><text x="399" y="48" text-anchor="middle" font-family="-apple-system,Segoe UI,Roboto,Arial,sans-serif" font-size="13" font-weight="700" fill="#0d3b66">Cedolini</text>
<line x1="200" y1="120" x2="296" y2="120" stroke="#7a8696" stroke-width="1.8" marker-end="url(#ah)"/>
<rect x="296" y="94" width="200" height="52" rx="11" fill="#fdf0e6" stroke="#c4ccd6" stroke-width="1.4"/><rect x="296" y="94" width="6" height="52" rx="3" fill="#ee964b"/><text x="399" y="124" text-anchor="middle" font-family="-apple-system,Segoe UI,Roboto,Arial,sans-serif" font-size="13" font-weight="700" fill="#0d3b66">Multe</text>
<line x1="200" y1="130" x2="296" y2="194" stroke="#7a8696" stroke-width="1.8" marker-end="url(#ah)"/>
<rect x="296" y="168" width="200" height="52" rx="11" fill="#fbeaea" stroke="#c4ccd6" stroke-width="1.4"/><rect x="296" y="168" width="6" height="52" rx="3" fill="#d64545"/><text x="399" y="198" text-anchor="middle" font-family="-apple-system,Segoe UI,Roboto,Arial,sans-serif" font-size="13" font-weight="700" fill="#0d3b66">Sanzioni disciplinari</text>
<rect x="520" y="74" width="192" height="92" rx="11" fill="#e9f2f4" stroke="#c4ccd6" stroke-width="1.4"/><rect x="520" y="74" width="6" height="92" rx="3" fill="#1f7a8c"/><text x="619" y="108" text-anchor="middle" font-family="-apple-system,Segoe UI,Roboto,Arial,sans-serif" font-size="13" font-weight="700" fill="#0d3b66">Riservatezza</text><text x="619" y="124" text-anchor="middle" font-family="-apple-system,Segoe UI,Roboto,Arial,sans-serif" font-size="11.5" font-weight="400" fill="#5b6470">l’Ufficio paghe carica;</text><text x="619" y="140" text-anchor="middle" font-family="-apple-system,Segoe UI,Roboto,Arial,sans-serif" font-size="11.5" font-weight="400" fill="#5b6470">ognuno vede solo i propri</text>
<path d="M496,120 L516,120" stroke="#7a8696" stroke-width="1.6" stroke-dasharray="3 3"/>
</svg>