<svg xmlns="http://www.w3.org/2000/svg" viewBox="0 0 720 150" width="720" height="150" font-family="-apple-system,Segoe UI,Roboto,Arial,sans-serif">
<defs><marker id="ah" markerWidth="9" markerHeight="9" refX="7" refY="3.2" orient="auto">
<path d="M0,0 L7,3.2 L0,6.4 z" fill="#7a8696"/></marker></defs>
<rect x="0" y="0" width="720" height="150" fill="#fff"/>
<rect x="6" y="44" width="150" height="66" rx="11" fill="#f4f8fb" stroke="#c4ccd6" stroke-width="1.4"/><rect x="6" y="44" width="6" height="66" rx="3" fill="#0d3b66"/><text x="84" y="73" text-anchor="middle" font-family="-apple-system,Segoe UI,Roboto,Arial,sans-serif" font-size="13" font-weight="700" fill="#0d3b66">Scansiona QR</text><text x="84" y="89" text-anchor="middle" font-family="-apple-system,Segoe UI,Roboto,Arial,sans-serif" font-size="11.5" font-weight="400" fill="#5b6470">o scegli il mezzo</text>
<line x1="156" y1="77" x2="192" y2="77" stroke="#7a8696" stroke-width="1.8" marker-end="url(#ah)"/>
<rect x="192" y="44" width="150" height="66" rx="11" fill="#fdf0e6" stroke="#c4ccd6" stroke-width="1.4"/><rect x="192" y="44" width="6" height="66" rx="3" fill="#ee964b"/><text x="270" y="73" text-anchor="middle" font-family="-apple-system,Segoe UI,Roboto,Arial,sans-serif" font-size="13" font-weight="700" fill="#0d3b66">Dichiara stato</text><text x="270" y="89" text-anchor="middle" font-family="-apple-system,Segoe UI,Roboto,Arial,sans-serif" font-size="11.5" font-weight="400" fill="#5b6470">danni già presenti / nuovi (foto)</text>
<line x1="342" y1="77" x2="378" y2="77" stroke="#7a8696" stroke-width="1.8" marker-end="url(#ah)"/>
<rect x="378" y="44" width="150" height="66" rx="11" fill="#eaf6ee" stroke="#c4ccd6" stroke-width="1.4"/><rect x="378" y="44" width="6" height="66" rx="3" fill="#2e9e5b"/><text x="456" y="73" text-anchor="middle" font-family="-apple-system,Segoe UI,Roboto,Arial,sans-serif" font-size="13" font-weight="700" fill="#0d3b66">Presa in carico</text><text x="456" y="89" text-anchor="middle" font-family="-apple-system,Segoe UI,Roboto,Arial,sans-serif" font-size="11.5" font-weight="400" fill="#5b6470">il mezzo risulta «in uso»</text>
<line x1="528" y1="77" x2="564" y2="77" stroke="#7a8696" stroke-width="1.8" marker-end="url(#ah)"/>
<rect x="564" y="44" width="150" height="66" rx="11" fill="#f4f8fb" stroke="#c4ccd6" stroke-width="1.4"/><rect x="564" y="44" width="6" height="66" rx="3" fill="#0d3b66"/><text x="642" y="73" text-anchor="middle" font-family="-apple-system,Segoe UI,Roboto,Arial,sans-serif" font-size="13" font-weight="700" fill="#0d3b66">Riconsegna</text><text x="642" y="89" text-anchor="middle" font-family="-apple-system,Segoe UI,Roboto,Arial,sans-serif" font-size="11.5" font-weight="400" fill="#5b6470">di nuovo disponibile</text>
</svg>