<svg xmlns="http://www.w3.org/2000/svg" viewBox="0 0 720 150" width="720" height="150" font-family="-apple-system,Segoe UI,Roboto,Arial,sans-serif">
<defs><marker id="ah" markerWidth="9" markerHeight="9" refX="7" refY="3.2" orient="auto">
<path d="M0,0 L7,3.2 L0,6.4 z" fill="#7a8696"/></marker></defs>
<rect x="0" y="0" width="720" height="150" fill="#fff"/>
<rect x="10" y="44" width="180" height="64" rx="11" fill="#f4f8fb" stroke="#c4ccd6" stroke-width="1.4"/><rect x="10" y="44" width="6" height="64" rx="3" fill="#0d3b66"/><text x="103" y="72" text-anchor="middle" font-family="-apple-system,Segoe UI,Roboto,Arial,sans-serif" font-size="13" font-weight="700" fill="#0d3b66">Modifica di un flag</text><text x="103" y="88" text-anchor="middle" font-family="-apple-system,Segoe UI,Roboto,Arial,sans-serif" font-size="11.5" font-weight="400" fill="#5b6470">o nuova categoria</text>
<line x1="190" y1="76" x2="230" y2="76" stroke="#7a8696" stroke-width="1.8" marker-end="url(#ah)"/>
<rect x="230" y="44" width="230" height="64" rx="11" fill="#fdf0e6" stroke="#c4ccd6" stroke-width="1.4"/><rect x="230" y="44" width="6" height="64" rx="3" fill="#ee964b"/><text x="348" y="72" text-anchor="middle" font-family="-apple-system,Segoe UI,Roboto,Arial,sans-serif" font-size="13" font-weight="700" fill="#0d3b66">Conferma</text><text x="348" y="88" text-anchor="middle" font-family="-apple-system,Segoe UI,Roboto,Arial,sans-serif" font-size="11.5" font-weight="400" fill="#5b6470">password dell’utente abilitato</text>
<line x1="460" y1="76" x2="500" y2="76" stroke="#7a8696" stroke-width="1.8" marker-end="url(#ah)"/>
<rect x="500" y="44" width="210" height="64" rx="11" fill="#eaf6ee" stroke="#c4ccd6" stroke-width="1.4"/><rect x="500" y="44" width="6" height="64" rx="3" fill="#2e9e5b"/><text x="608" y="72" text-anchor="middle" font-family="-apple-system,Segoe UI,Roboto,Arial,sans-serif" font-size="13" font-weight="700" fill="#0d3b66">Salvato</text><text x="608" y="88" text-anchor="middle" font-family="-apple-system,Segoe UI,Roboto,Arial,sans-serif" font-size="11.5" font-weight="400" fill="#5b6470">la categoria cambia subito</text>
</svg>