<svg xmlns="http://www.w3.org/2000/svg" viewBox="0 0 720 250" width="720" height="250" font-family="-apple-system,Segoe UI,Roboto,Arial,sans-serif">
<defs><marker id="ah" markerWidth="9" markerHeight="9" refX="7" refY="3.2" orient="auto">
<path d="M0,0 L7,3.2 L0,6.4 z" fill="#7a8696"/></marker></defs>
<rect x="0" y="0" width="720" height="250" fill="#fff"/>
<rect x="10" y="96" width="160" height="64" rx="11" fill="#eaf6ee" stroke="#c4ccd6" stroke-width="1.4"/><rect x="10" y="96" width="6" height="64" rx="3" fill="#2e9e5b"/><text x="93" y="124" text-anchor="middle" font-family="-apple-system,Segoe UI,Roboto,Arial,sans-serif" font-size="13" font-weight="700" fill="#0d3b66">Dipendente</text><text x="93" y="140" text-anchor="middle" font-family="-apple-system,Segoe UI,Roboto,Arial,sans-serif" font-size="11.5" font-weight="400" fill="#5b6470">crea richiesta: data, ore, motivo</text>
<line x1="170" y1="128" x2="210" y2="128" stroke="#7a8696" stroke-width="1.8" marker-end="url(#ah)"/>
<rect x="210" y="96" width="120" height="64" rx="11" fill="#eef1f5" stroke="#c4ccd6" stroke-width="1.4"/><rect x="210" y="96" width="6" height="64" rx="3" fill="#7a8696"/><text x="273" y="132" text-anchor="middle" font-family="-apple-system,Segoe UI,Roboto,Arial,sans-serif" font-size="13" font-weight="700" fill="#0d3b66">In attesa</text>
<line x1="330" y1="128" x2="372" y2="128" stroke="#7a8696" stroke-width="1.8" marker-end="url(#ah)"/>
<polygon points="450,82 525,128 450,174 375,128" fill="#fdf0e6" stroke="#ee964b" stroke-width="1.6"/><text x="450" y="124.5" text-anchor="middle" font-family="-apple-system,Segoe UI,Roboto,Arial,sans-serif" font-size="12" font-weight="700" fill="#0d3b66">Responsabile</text><text x="450" y="139.5" text-anchor="middle" font-family="-apple-system,Segoe UI,Roboto,Arial,sans-serif" font-size="12" font-weight="400" fill="#0d3b66">decide</text>
<line x1="505" y1="95" x2="556" y2="58" stroke="#7a8696" stroke-width="1.8" marker-end="url(#ah)"/><rect x="501.4" y="57.5" width="58.199999999999996" height="17" rx="8" fill="#fff" stroke="#c4ccd6" stroke-width="1"/><text x="530.5" y="69.5" text-anchor="middle" font-family="-apple-system,Segoe UI,Roboto,Arial,sans-serif" font-size="11" font-weight="600" fill="#5b6470">approva</text>
<rect x="556" y="28" width="154" height="56" rx="11" fill="#eaf6ee" stroke="#c4ccd6" stroke-width="1.4"/><rect x="556" y="28" width="6" height="56" rx="3" fill="#2e9e5b"/><text x="636" y="60" text-anchor="middle" font-family="-apple-system,Segoe UI,Roboto,Arial,sans-serif" font-size="13" font-weight="700" fill="#0d3b66">Approvata</text>
<line x1="505" y1="161" x2="556" y2="196" stroke="#7a8696" stroke-width="1.8" marker-end="url(#ah)"/><rect x="501.4" y="159.5" width="58.199999999999996" height="17" rx="8" fill="#fff" stroke="#c4ccd6" stroke-width="1"/><text x="530.5" y="171.5" text-anchor="middle" font-family="-apple-system,Segoe UI,Roboto,Arial,sans-serif" font-size="11" font-weight="600" fill="#5b6470">rifiuta</text>
<rect x="556" y="178" width="154" height="56" rx="11" fill="#fbeaea" stroke="#c4ccd6" stroke-width="1.4"/><rect x="556" y="178" width="6" height="56" rx="3" fill="#d64545"/><text x="636" y="210" text-anchor="middle" font-family="-apple-system,Segoe UI,Roboto,Arial,sans-serif" font-size="13" font-weight="700" fill="#0d3b66">Respinta</text>
<text x="360" y="235" text-anchor="middle" font-family="-apple-system,Segoe UI,Roboto,Arial,sans-serif" font-size="11.5" font-weight="600" fill="#5b6470">L’esito (con nota) compare al dipendente in tempo reale</text>
</svg>