<svg xmlns="http://www.w3.org/2000/svg" viewBox="0 0 720 216" width="720" height="216" font-family="-apple-system,Segoe UI,Roboto,Arial,sans-serif">
<defs><marker id="ah" markerWidth="9" markerHeight="9" refX="7" refY="3.2" orient="auto">
<path d="M0,0 L7,3.2 L0,6.4 z" fill="#7a8696"/></marker></defs>
<rect x="0" y="0" width="720" height="216" fill="#fff"/>
<rect x="8" y="70" width="150" height="60" rx="11" fill="#eef1f5" stroke="#c4ccd6" stroke-width="1.4"/><rect x="8" y="70" width="6" height="60" rx="3" fill="#7a8696"/><text x="86" y="104" text-anchor="middle" font-family="-apple-system,Segoe UI,Roboto,Arial,sans-serif" font-size="13" font-weight="700" fill="#0d3b66">Fuori servizio</text>
<line x1="158" y1="100" x2="196" y2="100" stroke="#7a8696" stroke-width="1.8" marker-end="url(#ah)"/><rect x="147.9" y="81" width="58.199999999999996" height="17" rx="8" fill="#fff" stroke="#c4ccd6" stroke-width="1"/><text x="177" y="93" text-anchor="middle" font-family="-apple-system,Segoe UI,Roboto,Arial,sans-serif" font-size="11" font-weight="600" fill="#5b6470">viaggio</text>
<rect x="196" y="70" width="150" height="60" rx="11" fill="#fdf0e6" stroke="#c4ccd6" stroke-width="1.4"/><rect x="196" y="70" width="6" height="60" rx="3" fill="#ee964b"/><text x="274" y="104" text-anchor="middle" font-family="-apple-system,Segoe UI,Roboto,Arial,sans-serif" font-size="13" font-weight="700" fill="#0d3b66">In viaggio</text>
<line x1="346" y1="100" x2="384" y2="100" stroke="#7a8696" stroke-width="1.8" marker-end="url(#ah)"/><rect x="339.2" y="81" width="51.599999999999994" height="17" rx="8" fill="#fff" stroke="#c4ccd6" stroke-width="1"/><text x="365" y="93" text-anchor="middle" font-family="-apple-system,Segoe UI,Roboto,Arial,sans-serif" font-size="11" font-weight="600" fill="#5b6470">lavoro</text>
<rect x="384" y="70" width="150" height="60" rx="11" fill="#eaf6ee" stroke="#c4ccd6" stroke-width="1.4"/><rect x="384" y="70" width="6" height="60" rx="3" fill="#2e9e5b"/><text x="462" y="104" text-anchor="middle" font-family="-apple-system,Segoe UI,Roboto,Arial,sans-serif" font-size="13" font-weight="700" fill="#0d3b66">Al lavoro</text>
<line x1="534" y1="100" x2="572" y2="100" stroke="#7a8696" stroke-width="1.8" marker-end="url(#ah)"/><rect x="530.5" y="81" width="45" height="17" rx="8" fill="#fff" stroke="#c4ccd6" stroke-width="1"/><text x="553" y="93" text-anchor="middle" font-family="-apple-system,Segoe UI,Roboto,Arial,sans-serif" font-size="11" font-weight="600" fill="#5b6470">pausa</text>
<rect x="572" y="70" width="140" height="60" rx="11" fill="#fbf3e2" stroke="#c4ccd6" stroke-width="1.4"/><rect x="572" y="70" width="6" height="60" rx="3" fill="#b7791f"/><text x="645" y="104" text-anchor="middle" font-family="-apple-system,Segoe UI,Roboto,Arial,sans-serif" font-size="13" font-weight="700" fill="#0d3b66">In pausa</text>
<path d="M642,70 C642,36 459,36 459,68" fill="none" stroke="#7a8696" stroke-width="1.6" marker-end="url(#ah)"/>
<text x="550" y="30" text-anchor="middle" font-family="-apple-system,Segoe UI,Roboto,Arial,sans-serif" font-size="11" font-weight="600" fill="#5b6470">riprendi lavoro</text>
<path d="M459,130 C459,172 83,172 83,132" fill="none" stroke="#7a8696" stroke-width="1.6" marker-end="url(#ah)"/>
<text x="280" y="206" text-anchor="middle" font-family="-apple-system,Segoe UI,Roboto,Arial,sans-serif" font-size="11.5" font-weight="600" fill="#5b6470">🏁 «Fine giornata» da qualsiasi stato → chiude la giornata</text>
</svg>